<svg width="49" height="48" viewBox="0 0 49 48" fill="none" xmlns="http://www.w3.org/2000/svg">
<g clip-path="url(#clip0_3_845)">
<path d="M44.5217 6.22325C39.1337 0.835064 30.5565 0.53244 24.8101 5.31547C19.0638 0.53244 10.4865 0.835158 5.09846 6.22325C2.33303 8.9886 0.810059 12.6654 0.810059 16.5763C0.810059 20.4871 2.33303 24.1639 5.09846 26.9293L23.8157 45.6465C24.0795 45.9103 24.4371 46.0585 24.8101 46.0585C25.183 46.0585 25.5407 45.9103 25.8044 45.6465L44.5217 26.9293C47.2871 24.1638 48.8101 20.487 48.8101 16.5763C48.8101 12.6655 47.2871 8.9886 44.5217 6.22325ZM7.08718 8.21188C9.39325 5.90591 12.4223 4.75288 15.4515 4.75288C18.4806 4.75288 21.5098 5.90591 23.8157 8.21188C24.3648 8.76107 25.2553 8.76107 25.8045 8.21188C30.4166 3.59994 37.921 3.59985 42.533 8.21188C44.7671 10.4461 45.9976 13.4167 45.9976 16.5763C45.9976 18.726 45.4274 20.7881 44.3596 22.5904H35.9221L30.6911 14.744C30.4237 14.3429 29.9713 14.1059 29.4875 14.1182C29.0057 14.1297 28.5632 14.3872 28.3152 14.8005L20.7692 27.3772L16.3943 23.0023C16.1306 22.7386 15.7729 22.5904 15.4 22.5904H5.26056C4.19275 20.788 3.62256 18.726 3.62256 16.5763C3.62256 13.4166 4.85303 10.4461 7.08718 8.21188ZM24.8101 42.6634L7.54956 25.4029H14.8174L20.0539 30.6394C20.3192 30.9047 20.6776 31.0513 21.0482 31.0513C21.1052 31.0513 21.1627 31.0479 21.22 31.0408C21.6497 30.988 22.0312 30.74 22.2541 30.3687L29.5834 18.153L33.9992 24.7768C34.2601 25.168 34.6992 25.403 35.1693 25.403H42.0705L24.8101 42.6634Z" fill="#666666"/>
</g>
<defs>
<clipPath id="clip0_3_845">
<rect width="48" height="48" fill="white" transform="translate(0.810059)"/>
</clipPath>
</defs>
</svg>
