<svg width="54" height="53" viewBox="0 0 54 53" fill="none" xmlns="http://www.w3.org/2000/svg">
<path d="M34.3573 27.0381L34.6515 26.7438C35.6289 25.7663 36.1673 24.4668 36.1673 23.0848C36.1673 22.0543 35.8676 21.07 35.3102 20.2306L42.829 12.713C44.0066 13.5741 45.403 14.0049 46.7992 14.0049C48.5224 14.0049 50.2454 13.3492 51.5566 12.0379C51.5567 12.0379 51.5567 12.0379 51.5567 12.0379C54.1807 9.41388 54.1807 5.14444 51.5566 2.52037C48.934 -0.102345 44.6653 -0.102554 42.0405 2.52037C39.6655 4.89543 39.4404 8.61854 41.3651 11.2496L33.8459 18.7678C31.8381 17.44 29.1011 17.6591 27.3345 19.4257L27.0398 19.7204L26.1959 18.8766C25.2184 17.899 23.9188 17.3605 22.5368 17.3605C21.5064 17.3605 20.5221 17.6603 19.6825 18.2177L14.3722 12.906C12.7218 11.2557 10.2551 10.6141 7.93436 11.2317C6.19867 11.6923 4.38635 11.135 3.20557 9.77768C1.66683 8.00509 1.69339 5.35426 3.26777 3.61188C4.16629 2.61728 5.39653 2.0697 6.73182 2.0697C7.30345 2.0697 7.76667 1.60637 7.76667 1.03485C7.76667 0.463324 7.30345 0 6.73182 0C4.83159 0 3.00913 0.810817 1.73196 2.22452C-0.542843 4.74238 -0.581314 8.57275 1.64321 11.1355C3.34711 13.0937 5.96115 13.8971 8.46594 13.2319C10.0762 12.8036 11.7783 13.2393 12.9085 14.3695L18.2198 19.6821C16.8929 21.69 17.112 24.4274 18.8777 26.1945L19.7217 27.0384L7.47417 39.2862C7.07001 39.6903 7.07001 40.3456 7.47417 40.7496C7.87832 41.1537 8.53348 41.1539 8.93774 40.7496L28.7982 20.8892C30.0082 19.6789 31.9775 19.6789 33.1877 20.8892C34.3984 22.0999 34.3984 24.0695 33.1873 25.2807L7.96676 50.5015L3.577 46.1105L6.14389 43.5438C6.54804 43.1396 6.54804 42.4844 6.14389 42.0803C5.73973 41.6762 5.08458 41.6762 4.68032 42.0803L1.38185 45.3788C0.977701 45.7829 0.977701 46.4381 1.38185 46.8422L7.23498 52.6968C7.42901 52.891 7.69213 53 7.96666 53C8.24108 53 8.50431 52.891 8.69844 52.697L27.7717 33.6252L32.8938 28.502L49.9534 45.5614L45.5624 49.9525L30.4133 34.8029C30.009 34.3988 29.3539 34.3987 28.9497 34.8029C28.5456 35.2071 28.5456 35.8623 28.9497 36.2664L44.8308 52.1475C45.0249 52.3416 45.2881 52.4506 45.5627 52.4506C45.8373 52.4506 46.1003 52.3416 46.2946 52.1475L52.1492 46.2929C52.5533 45.8887 52.5533 45.2335 52.1492 44.8294L34.3573 27.0381ZM43.504 3.98425C44.4128 3.07611 45.6059 2.62198 46.7992 2.62198C47.9922 2.62198 49.1853 3.07611 50.0933 3.98404C51.9103 5.80096 51.9103 8.75747 50.0933 10.5746C48.2773 12.3907 45.3211 12.3905 43.5043 10.5746C41.6872 8.75737 41.6872 5.80085 43.504 3.98425ZM21.1852 25.5749L20.3415 24.7315C19.1319 23.5208 19.1319 21.5512 20.3408 20.3405C20.3409 20.3404 20.3411 20.3404 20.3411 20.3402C20.3412 20.34 20.3414 20.3398 20.3414 20.3397C20.9282 19.7534 21.7077 19.4303 22.5369 19.4303C23.366 19.4303 24.1458 19.7534 24.7324 20.3401L25.5762 21.1839L21.1852 25.5749Z" fill="#1665D8"/>
</svg>
