<svg width="91" height="91" viewBox="0 0 91 91" fill="none" xmlns="http://www.w3.org/2000/svg">
<rect x="0.0936279" y="0.699951" width="90" height="90" rx="45" fill="#6758F3" fill-opacity="0.1"/>
<g clip-path="url(#clip0_3_20)">
<g clip-path="url(#clip1_3_20)">
<g clip-path="url(#clip2_3_20)">
<path d="M68.1205 69.0373L65.8201 55.5698C65.5722 54.1188 64.5428 52.9531 63.1334 52.528L56.9288 50.6559C56.8003 49.1392 56.1785 47.7082 55.1435 46.5756C54.3157 45.6697 53.2745 45.01 52.1267 44.646C52.3231 44.4281 52.5052 44.2108 52.6723 43.9984C54.1478 42.1218 54.9378 40.0544 55.1389 38.6436H55.6175C56.8625 38.6436 57.8754 37.6308 57.8754 36.3858V35.2284C57.8754 34.3975 57.408 33.6446 56.7051 33.2539V30.4707C56.7051 30.0501 56.3641 29.7091 55.9435 29.7091C55.523 29.7091 55.1821 30.05 55.1821 30.4707V33.5951C54.8856 33.6466 54.5317 33.7356 54.1697 33.888C54.1327 33.9015 54.0966 33.9172 54.0625 33.936C53.9807 33.9732 53.8989 34.0125 53.8173 34.0568V27.9202C53.8173 26.2248 52.4381 24.8456 50.7427 24.8456H48.6409C47.9159 24.8456 47.2077 25.0982 46.6465 25.5571L46.4402 25.7257C46.0614 26.0354 45.5833 26.206 45.0938 26.206C44.6044 26.206 44.1261 26.0354 43.7473 25.7257L43.5411 25.5571C42.9799 25.0983 42.2717 24.8456 41.5467 24.8456H39.4447C37.7493 24.8456 36.3701 26.2248 36.3701 27.9202V34.0568C36.2886 34.0125 36.2067 33.9732 36.1249 33.936C36.0908 33.9172 36.0549 33.9015 36.0178 33.888C35.6558 33.7356 35.3019 33.6466 35.0054 33.5951V25.6947C35.0054 23.2289 37.0115 21.2229 39.4772 21.2229H50.7101C53.176 21.2229 55.1819 23.2289 55.1819 25.6947V26.8917C55.1819 27.3123 55.5229 27.6532 55.9433 27.6532C56.3638 27.6532 56.7048 27.3124 56.7048 26.8917V25.6947C56.7048 22.3892 54.0156 19.7 50.7101 19.7H39.4772C36.1717 19.7 33.4825 22.3892 33.4825 25.6947V33.254C32.7796 33.6447 32.3122 34.3975 32.3122 35.2285V36.3859C32.3122 37.6309 33.3251 38.6437 34.57 38.6437H35.0487C35.2497 40.0545 36.0397 42.1219 37.5152 43.9985C37.6821 44.2107 37.8641 44.4278 38.0603 44.6455C35.4217 45.4836 33.4975 47.8559 33.2587 50.6559L27.0539 52.528C25.6445 52.9531 24.6151 54.1188 24.3672 55.5698L23.4331 61.0388C23.3623 61.4534 23.641 61.8468 24.0555 61.9176C24.4698 61.9885 24.8634 61.7098 24.9343 61.2952L25.8684 55.8261C26.0184 54.9482 26.6411 54.2432 27.4937 53.986L33.2325 52.2545V53.7608C31.9171 54.0029 30.7978 54.9065 30.3368 56.1585C30.2144 56.4908 30.1383 56.8387 30.1107 57.1926L29.5561 64.3116C29.5142 64.8478 29.6998 65.3818 30.0649 65.7764C30.43 66.1711 30.9479 66.3976 31.4857 66.3976H32.4351C32.8556 66.3976 33.1966 66.0567 33.1966 65.6361C33.1966 65.2154 32.8556 64.8746 32.4351 64.8746H31.4857C31.371 64.8746 31.2607 64.8265 31.1828 64.7422C31.105 64.6581 31.0655 64.5444 31.0744 64.4301L31.6291 57.311C31.6458 57.0966 31.6918 56.8858 31.766 56.6846C32.0867 55.8137 32.9528 55.224 33.9214 55.2172L34.0469 55.2163C34.0528 55.2162 34.0585 55.2162 34.0643 55.2162C35.0057 55.2162 35.839 55.75 36.1905 56.5798C36.2892 56.8125 36.3491 57.0585 36.3688 57.311L36.9236 64.4302C36.9325 64.5444 36.893 64.6581 36.8152 64.7423C36.7374 64.8264 36.627 64.8746 36.5123 64.8746H35.5629C35.1423 64.8746 34.8014 65.2155 34.8014 65.6361C34.8014 66.0566 35.1423 66.3976 35.5629 66.3976H36.5123C37.0501 66.3976 37.568 66.1712 37.9331 65.7764C38.2983 65.3816 38.4838 64.8477 38.442 64.3117L37.8871 57.1926C37.8546 56.776 37.7556 56.3698 37.5928 55.9856C37.0912 54.8017 36.0186 53.9785 34.7554 53.7558V51.795L37.373 51.0052C37.6112 51.5068 38.0832 52.5908 39.018 54.9274C39.9602 57.2851 41.1314 60.3071 42.2545 63.2449C42.2626 63.2696 42.2718 63.2936 42.2822 63.3172C43.0317 65.2785 43.7588 67.1994 44.3806 68.8565C44.4922 69.1537 44.7762 69.3505 45.0936 69.3505C45.411 69.3505 45.6951 69.1537 45.8066 68.8565C46.4283 67.1994 47.1554 65.2785 47.9051 63.3172C47.9155 63.2936 47.9247 63.2695 47.9327 63.2449C49.0551 60.3088 50.2256 57.2887 51.1674 54.9318C52.1035 52.5921 52.5758 51.5072 52.8141 51.0052L55.4318 51.795V56.2927C53.6181 56.645 52.2442 58.2446 52.2442 60.1599C52.2442 62.3324 54.0117 64.1 56.1843 64.1C58.357 64.1 60.1245 62.3325 60.1245 60.1599C60.1245 58.2509 58.7597 56.6552 56.9547 56.296V52.2546L62.6936 53.9861C63.5462 54.2433 64.1689 54.9483 64.3189 55.8262L66.6193 69.2937C66.6575 69.5171 66.5981 69.7354 66.4519 69.9086C66.3059 70.0817 66.1006 70.1771 65.874 70.1771H24.3132C24.0866 70.1771 23.8815 70.0818 23.7353 69.9086C23.5893 69.7354 23.5298 69.5172 23.568 69.2937L24.3271 64.8492C24.3979 64.4346 24.1192 64.0412 23.7048 63.9704C23.2904 63.8993 22.8968 64.1783 22.8259 64.5928L22.0668 69.0374C21.9535 69.7008 22.1374 70.3763 22.5713 70.8907C23.0054 71.405 23.6403 71.7 24.3132 71.7H65.874C66.547 71.7 67.1819 71.405 67.6159 70.8906C68.0498 70.3762 68.2337 69.7007 68.1205 69.0373ZM55.1911 35.1465C55.5968 35.0453 55.9225 35.0472 55.9262 35.0473C56.0574 35.049 56.185 35.0183 56.2983 34.9589C56.3322 35.0433 56.3522 35.134 56.3522 35.2285V36.3859C56.3522 36.7911 56.0226 37.1208 55.6173 37.1208H55.1911V35.1465ZM34.9962 37.1208H34.5699C34.1647 37.1208 33.835 36.7911 33.835 36.3859V35.2285C33.835 35.134 33.8551 35.0433 33.8889 34.959C34.0022 35.0184 34.1297 35.0491 34.2611 35.0473C34.2669 35.0483 34.5916 35.0465 34.9962 35.1469V37.1208ZM36.5191 37.9746V35.974C36.7499 36.0432 37.0022 36.0337 37.2352 35.9365C37.6349 35.7698 37.893 35.3825 37.893 34.9498V27.9202C37.893 27.0647 38.5891 26.3685 39.4447 26.3685H41.5465C41.9211 26.3685 42.287 26.4991 42.577 26.7361L42.7832 26.9047C43.4333 27.4363 44.2538 27.7289 45.0936 27.7289C45.9334 27.7289 46.754 27.4362 47.4041 26.9047L47.6102 26.7361C47.9001 26.4991 48.2661 26.3685 48.6407 26.3685H50.7425C51.5981 26.3685 52.2942 27.0647 52.2942 27.9202V34.9499C52.2942 35.3825 52.5524 35.7699 52.952 35.9366C53.0855 35.9923 53.2252 36.0193 53.3637 36.0193C53.467 36.0193 53.5695 36.0042 53.6681 35.9747V37.9746C53.6681 39.0864 52.8995 41.2454 51.475 43.0571C51.0031 43.6572 50.3966 44.3019 49.6498 44.8654C49.6261 44.8813 49.6035 44.8984 49.5819 44.9167C48.425 45.7721 46.9374 46.4273 45.0936 46.4273C43.2499 46.4273 41.7623 45.7721 40.6053 44.9166C40.5836 44.8984 40.5611 44.8813 40.5375 44.8655C39.7907 44.3019 39.1842 43.6572 38.7122 43.0571C37.2878 41.2455 36.5191 39.0864 36.5191 37.9746ZM50.0824 50.2774L45.0936 54.0061L40.1049 50.2774C40.5996 49.6486 40.8767 48.8415 40.8767 48.1212V46.8937C42.0499 47.5246 43.4497 47.9504 45.0936 47.9504C46.7375 47.9504 48.1374 47.5246 49.3105 46.8937V48.1212C49.3105 48.8415 49.5877 49.6486 50.0824 50.2774ZM38.834 49.4274C38.4274 49.2725 37.9765 49.2471 37.5501 49.3628C37.5314 49.3672 37.5131 49.3721 37.4953 49.3774L34.8645 50.1712C35.3095 47.9834 37.086 46.242 39.3538 45.9047V48.1212C39.3538 48.599 39.1405 49.0928 38.834 49.4274ZM40.9007 55.5402C40.8993 55.5367 40.8979 55.5331 40.8965 55.5297C40.858 55.4321 40.8199 55.3358 40.7821 55.2406C40.7753 55.2234 40.7685 55.2062 40.7617 55.1891C40.7247 55.096 40.688 55.0036 40.6519 54.9127C40.6493 54.9063 40.6468 54.9 40.6443 54.8935C40.5314 54.6098 40.4227 54.3377 40.318 54.077C40.3104 54.0581 40.3028 54.0389 40.2952 54.0202C40.2651 53.9454 40.2356 53.8718 40.2062 53.7991C40.1955 53.7723 40.1848 53.7459 40.1741 53.7195C40.1457 53.649 40.1175 53.579 40.0896 53.5104C40.0813 53.4899 40.0732 53.47 40.065 53.4496C40.0145 53.3251 39.9651 53.2037 39.917 53.0854C39.904 53.0534 39.8907 53.0208 39.8778 52.9892C39.8589 52.9431 39.8405 52.8982 39.822 52.853C39.8021 52.8042 39.7822 52.7559 39.7627 52.7084C39.7554 52.6906 39.7478 52.6718 39.7405 52.6541C39.7346 52.6399 39.7292 52.6268 39.7234 52.6127C39.6354 52.399 39.5519 52.1976 39.4725 52.0082C39.4719 52.0067 39.4712 52.0052 39.4706 52.0036C39.4284 51.9028 39.387 51.8043 39.3473 51.7104C39.3267 51.6618 39.3064 51.6139 39.2865 51.567L43.577 54.7737L41.7842 55.5354C41.7811 55.5367 41.7778 55.538 41.7747 55.5394L41.0261 55.8574C40.9837 55.7501 40.9421 55.6449 40.9007 55.5402ZM42.7177 60.2028C42.5672 59.8125 42.4157 59.4199 42.2639 59.0278C42.0264 58.4145 41.7996 57.8313 41.5826 57.2757L41.8668 57.155L43.0278 58.5046L42.7177 60.2028ZM45.1083 66.3918C45.0865 66.3465 45.0605 66.3037 45.0304 66.2639C44.6864 65.3544 44.2496 64.2036 43.7663 62.9374L44.4772 59.0451H45.71L46.4209 62.9374C45.9144 64.264 45.4595 65.4634 45.1083 66.3918ZM45.9956 57.5222H44.1916L43.338 56.53L45.0936 55.7842L46.8492 56.53L45.9956 57.5222ZM47.9234 59.0278C47.7715 59.4199 47.62 59.8125 47.4696 60.2028L47.1594 58.5045L48.3205 57.1549L48.6046 57.2756C48.3876 57.8312 48.1608 58.4145 47.9234 59.0278ZM50.84 51.7104C50.8023 51.7994 50.7631 51.8927 50.7232 51.988C50.718 52.0004 50.7128 52.0129 50.7076 52.0254C50.6681 52.1198 50.6279 52.2163 50.5862 52.3167C50.5835 52.3233 50.5806 52.3304 50.5779 52.3371C50.5419 52.4237 50.5051 52.5131 50.4676 52.6042C50.4606 52.6212 50.454 52.637 50.447 52.6541C50.4386 52.6746 50.4297 52.6962 50.4213 52.7168C50.4046 52.7574 50.3877 52.7989 50.3706 52.8403C50.3497 52.8914 50.3289 52.9423 50.3074 52.9946C50.3006 53.0112 50.2936 53.0286 50.2867 53.0454C50.2337 53.1753 50.1793 53.3091 50.1236 53.4466C50.1149 53.4682 50.1062 53.4893 50.0975 53.5111C50.07 53.5791 50.0419 53.6484 50.0138 53.7182C50.0028 53.7455 49.9918 53.7727 49.9807 53.8004C49.9517 53.8724 49.9223 53.9453 49.8926 54.0192C49.8843 54.0399 49.8759 54.061 49.8676 54.0817C49.7643 54.3389 49.6571 54.6071 49.5459 54.8866C49.5423 54.8958 49.5386 54.9049 49.5349 54.9142C49.499 55.0045 49.4626 55.0963 49.4259 55.1888C49.4191 55.2061 49.4122 55.2234 49.4052 55.2407C49.3673 55.3364 49.329 55.4331 49.2902 55.5313C49.2895 55.5331 49.2888 55.535 49.288 55.5367C49.2462 55.6425 49.2042 55.749 49.1613 55.8576L48.4121 55.5393C48.4094 55.5382 48.4068 55.5371 48.4042 55.536L46.6105 54.774L50.901 51.5672C50.8808 51.6139 50.8605 51.6617 50.84 51.7104ZM52.6919 49.3775L52.6915 49.3774C52.6909 49.3772 52.6902 49.3771 52.6896 49.3768C52.2478 49.2443 51.7765 49.2662 51.3533 49.4274C51.0467 49.0928 50.8335 48.599 50.8335 48.1212V45.9036C53.1155 46.24 54.8867 47.965 55.3258 50.1722L52.6919 49.3775ZM58.6015 60.1599C58.6015 61.4928 57.5171 62.5771 56.1843 62.5771C54.8515 62.5771 53.7672 61.4928 53.7672 60.1599C53.7672 58.827 54.8515 57.7427 56.1843 57.7427C57.5171 57.7427 58.6015 58.827 58.6015 60.1599Z" fill="#6758F3"/>
</g>
</g>
</g>
<defs>
<clipPath id="clip0_3_20">
<rect width="52" height="52" fill="white" transform="translate(19.0936 19.7)"/>
</clipPath>
<clipPath id="clip1_3_20">
<rect width="52" height="52" fill="white" transform="translate(19.0936 19.7)"/>
</clipPath>
<clipPath id="clip2_3_20">
<rect width="52" height="52" fill="white" transform="translate(19.0936 19.7)"/>
</clipPath>
</defs>
</svg>
