<svg width="91" height="91" viewBox="0 0 91 91" fill="none" xmlns="http://www.w3.org/2000/svg">
<rect x="0.743652" y="0.699951" width="90" height="90" rx="45" fill="#E6492D" fill-opacity="0.1"/>
<g clip-path="url(#clip0_3_40)">
<g clip-path="url(#clip1_3_40)">
<g clip-path="url(#clip2_3_40)">
<path d="M45.7437 23.5996C46.3045 23.5996 46.7593 23.145 46.7593 22.584V20.7156C46.7593 20.1546 46.3045 19.7 45.7437 19.7C45.1827 19.7 44.728 20.1546 44.728 20.7156V22.584C44.728 23.145 45.1827 23.5996 45.7437 23.5996Z" fill="#E6492D"/>
<path d="M54.54 26.0745C54.698 26.1638 54.8697 26.2063 55.0392 26.2063C55.3932 26.2063 55.7373 26.0207 55.9241 25.6905L56.9047 23.9569C57.1808 23.4687 57.0089 22.849 56.5208 22.5728C56.0326 22.2968 55.4128 22.4685 55.1367 22.9568L54.1561 24.6904C53.8799 25.1786 54.0519 25.7982 54.54 26.0745Z" fill="#E6492D"/>
<path d="M61.3629 32.7765C61.5289 32.7765 61.6973 32.7358 61.8528 32.6498L63.7273 31.6152C64.2184 31.3443 64.3968 30.7263 64.1257 30.2353C63.8547 29.7441 63.2366 29.5658 62.7458 29.8369L60.8713 30.8715C60.3802 31.1424 60.2018 31.7604 60.4728 32.2514C60.6581 32.587 61.0051 32.7765 61.3629 32.7765Z" fill="#E6492D"/>
<path d="M65.9574 39.9258H63.9745C63.4137 39.9258 62.9589 40.3805 62.9589 40.9414C62.9589 41.5023 63.4137 41.957 63.9745 41.957H65.9574C66.5182 41.957 66.973 41.5023 66.973 40.9414C66.973 40.3805 66.5183 39.9258 65.9574 39.9258Z" fill="#E6492D"/>
<path d="M35.5634 25.6904C35.7503 26.0206 36.0943 26.2062 36.4484 26.2062C36.6178 26.2062 36.7895 26.1637 36.9475 26.0744C37.4357 25.7982 37.6076 25.1786 37.3314 24.6904L36.3509 22.9568C36.0745 22.4685 35.455 22.2968 34.9668 22.5728C34.4786 22.8489 34.3067 23.4686 34.5829 23.9569L35.5634 25.6904Z" fill="#E6492D"/>
<path d="M27.7602 31.6152L29.6347 32.6498C29.7903 32.7357 29.9585 32.7764 30.1245 32.7764C30.4824 32.7764 30.8294 32.5868 31.0146 32.2514C31.2857 31.7603 31.1073 31.1425 30.6162 30.8714L28.7417 29.8368C28.2506 29.5658 27.6328 29.7441 27.3617 30.2352C27.0907 30.7263 27.2691 31.3441 27.7602 31.6152Z" fill="#E6492D"/>
<path d="M27.5129 41.957C28.0738 41.957 28.5286 41.5023 28.5286 40.9414C28.5286 40.3805 28.0738 39.9258 27.5129 39.9258H25.53C24.9692 39.9258 24.5144 40.3805 24.5144 40.9414C24.5144 41.5023 24.9692 41.957 25.53 41.957H27.5129Z" fill="#E6492D"/>
<path d="M65.253 65.0796H62.7645V58.8408C62.7645 58.2799 62.3097 57.8252 61.7489 57.8252H59.6357V40.4499C59.6357 32.7916 53.4051 26.561 45.7406 26.561C38.0823 26.561 31.8517 32.7916 31.8517 40.4499V57.8253H29.7386C29.1778 57.8253 28.723 58.28 28.723 58.841V65.0797H26.2345C25.6737 65.0797 25.2189 65.5344 25.2189 66.0954V70.6844C25.2189 71.2453 25.6737 71.7 26.2345 71.7H65.253C65.8139 71.7 66.2686 71.2453 66.2686 70.6844V66.0953C66.2686 65.5344 65.8138 65.0796 65.253 65.0796ZM33.8831 40.4499C33.8831 33.9116 39.2024 28.5923 45.7469 28.5923C52.2852 28.5923 57.6045 33.9115 57.6045 40.4499V57.8253H48.8008V48.24C50.2702 47.2374 51.1602 45.5761 51.1602 43.7692C51.1602 40.7836 48.7304 38.3548 45.7437 38.3548C42.7571 38.3548 40.3273 40.7836 40.3273 43.7692C40.3273 45.576 41.2174 47.2373 42.6868 48.24V57.8253H33.8831V40.4499ZM44.174 46.7675C43.0543 46.1804 42.3586 45.0315 42.3586 43.7692C42.3586 41.9037 43.8771 40.386 45.7437 40.386C47.6104 40.386 49.1289 41.9037 49.1289 43.7692C49.1289 45.0316 48.4332 46.1805 47.3135 46.7675C46.979 46.9429 46.7695 47.2893 46.7695 47.6669V57.8252H44.718V47.6669C44.718 47.2892 44.5084 46.9428 44.174 46.7675ZM64.2374 69.6687H27.2501V67.1109H41.1525C41.7134 67.1109 42.1681 66.6562 42.1681 66.0953C42.1681 65.5343 41.7134 65.0796 41.1525 65.0796H30.7542V59.8565H60.7332V65.0796H50.335C49.7741 65.0796 49.3193 65.5343 49.3193 66.0953C49.3193 66.6562 49.7741 67.1109 50.335 67.1109H64.2374V69.6687Z" fill="#E6492D"/>
<path d="M46.7005 65.7068C46.5369 65.3142 46.1336 65.0581 45.7081 65.0811C45.2855 65.104 44.9143 65.3958 44.7911 65.8002C44.668 66.2042 44.8158 66.6605 45.1573 66.9111C45.4908 67.1558 45.9458 67.1753 46.2979 66.9576C46.7148 66.6999 46.8892 66.1597 46.7005 65.7068Z" fill="#E6492D"/>
</g>
</g>
</g>
<defs>
<clipPath id="clip0_3_40">
<rect width="52" height="52" fill="white" transform="translate(19.7437 19.7)"/>
</clipPath>
<clipPath id="clip1_3_40">
<rect width="52" height="52" fill="white" transform="translate(19.7437 19.7)"/>
</clipPath>
<clipPath id="clip2_3_40">
<rect width="52" height="52" fill="white" transform="translate(19.7437 19.7)"/>
</clipPath>
</defs>
</svg>
