<svg width="93" height="93" viewBox="0 0 93 93" fill="none" xmlns="http://www.w3.org/2000/svg">
<path d="M92.892 35.6661C92.0655 28.7375 86.4179 23.2294 79.4608 22.5709C74.7327 22.1179 70.1726 23.8609 66.9671 27.3454C65.5931 28.8365 63.409 28.8335 62.038 27.3484C61.768 27.0529 61.462 26.7604 61.1305 26.4634C61.36 25.1734 61.501 23.8549 61.501 22.5004C61.501 10.0937 51.4073 0 39.0006 0C26.5924 0 16.5003 10.0922 16.5003 22.5004C16.5003 25.8304 17.2473 28.9835 18.5508 31.829L15.7503 34.6296L13.0607 31.94L10.9397 34.0611L13.6292 36.7506L2.30254 48.0773C0.817513 49.5623 0 51.5363 0 53.6379C0 57.9729 3.52806 61.501 7.86313 61.501C9.96316 61.501 11.9387 60.6835 13.4237 59.1985L24.7504 47.8718L27.4399 50.5613L29.561 48.4403L26.8714 45.7507L29.672 42.9502C32.234 44.1247 35.0511 44.8207 38.0181 44.9512C38.7981 46.3117 39.7596 47.5373 40.9072 48.5828C43.2292 50.6903 44.3752 53.5599 44.0527 56.4549L43.9462 57.4179C43.6507 60.07 43.5007 62.77 43.5007 65.4431C43.5007 68.8706 43.7467 72.3282 44.2297 75.7212L46.2007 89.5169C46.4467 91.245 47.7038 92.616 49.3268 92.9265C49.5803 92.976 49.8353 93 50.0873 93C50.9933 93 51.8723 92.691 52.5773 92.1075C53.4819 91.362 54.0009 90.2625 54.0009 89.0924V80.1523C54.0009 72.1287 57.9084 64.7755 64.501 60.292C71.0921 64.7755 75.0012 72.1302 75.0012 80.1523V89.0144C75.0012 90.7515 76.1082 92.313 77.6938 92.8125C78.8143 93.1635 80.0173 93.015 80.9938 92.403C81.9658 91.7895 82.6198 90.7845 82.7818 89.6459L84.7709 75.7212C85.2554 72.3282 85.5014 68.8706 85.5014 65.4431C85.5014 62.77 85.3514 60.07 85.0574 57.4164L84.9509 56.4534C84.6284 53.5569 85.7744 50.6888 88.0949 48.5813C91.728 45.2782 93.477 40.5712 92.892 35.6661ZM11.3027 57.0774C10.3847 57.9954 9.16215 58.5009 7.86313 58.5009C5.18108 58.5009 3.00005 56.3199 3.00005 53.6379C3.00005 52.3388 3.50556 51.1163 4.42357 50.1983L15.7503 38.8716L22.6294 45.7507L11.3027 57.0774ZM24.7504 43.6297L17.8713 36.7506L20.0463 34.5756C21.8134 37.3386 24.1609 39.6876 26.9254 41.4547L24.7504 43.6297ZM39.0006 42.0007C28.2485 42.0007 19.5003 33.2525 19.5003 22.5004C19.5003 11.7482 28.2485 3.00005 39.0006 3.00005C49.7528 3.00005 58.5009 11.7482 58.5009 22.5004C58.5009 33.2525 49.7528 42.0007 39.0006 42.0007ZM86.0744 46.3613C83.0353 49.1243 81.5383 52.9224 81.9673 56.7849L82.0738 57.7479C82.3573 60.2905 82.5013 62.881 82.5013 65.4431C82.5013 68.7296 82.2658 72.0432 81.8008 75.2952L79.8118 89.2199C79.7743 89.4854 79.6228 89.7194 79.3963 89.862C79.2313 89.9655 78.9553 90.0645 78.5968 89.9505C78.2518 89.8424 78.0013 89.4479 78.0013 89.0144V80.1523C78.0013 70.7711 73.2522 62.2015 65.2961 57.2304L64.501 56.7309L63.706 57.2289C55.7499 62.2015 51.0008 70.7711 51.0008 80.1523V89.0924C51.0008 89.3654 50.8808 89.6219 50.6693 89.7944C50.5448 89.8964 50.2853 90.0555 49.8938 89.982C49.5398 89.9144 49.2353 89.5409 49.1723 89.0939L47.1998 75.2967C46.7363 72.0432 46.5008 68.7281 46.5008 65.4431C46.5008 62.881 46.6448 60.292 46.9268 57.7479L47.0333 56.7849C47.4623 52.9239 45.9652 49.1243 42.9247 46.3627C42.4192 45.9022 41.9647 45.3892 41.5447 44.8462C50.2823 43.8562 57.5034 37.8441 60.271 29.7725C61.4695 30.872 62.941 31.5005 64.501 31.5005C66.2516 31.5005 67.9106 30.746 69.1721 29.3765C71.7387 26.5894 75.3957 25.2019 79.1758 25.5559C84.6479 26.0749 89.2634 30.575 89.9114 36.0216C90.381 39.9516 88.9829 43.7197 86.0744 46.3613Z" fill="#F6AB2F"/>
<path d="M39.0008 6C29.9031 6 22.5005 13.4026 22.5005 22.5003C22.5005 31.5979 29.9031 39.0005 39.0008 39.0005C48.0984 39.0005 55.501 31.5979 55.501 22.5003C55.501 13.4026 48.0984 6 39.0008 6ZM26.7486 28.1314C25.955 26.4153 25.5005 24.5118 25.5005 22.5003C25.5005 15.0556 31.5561 9.00005 39.0008 9.00005V14.5456L37.2367 17.1917C36.4132 16.7642 35.4922 16.5002 34.5007 16.5002C31.1916 16.5002 28.5006 19.1912 28.5006 22.5003C28.5006 23.6103 28.8231 24.6363 29.3511 25.5288L26.7486 28.1314ZM37.5007 22.5003C37.5007 24.1548 36.1537 25.5003 34.5007 25.5003C32.8462 25.5003 31.5006 24.1548 31.5006 22.5003C31.5006 20.8457 32.8462 19.5002 34.5007 19.5002C36.1537 19.5002 37.5007 20.8472 37.5007 22.5003ZM39.0008 36.0005C34.6732 36.0005 30.8241 33.9455 28.3521 30.7699L31.4706 27.6499C32.3646 28.1779 33.3907 28.5004 34.5007 28.5004C36.6367 28.5004 38.5012 27.3708 39.5648 25.6878L44.0333 26.8068L47.6574 32.8474C45.3129 34.8125 42.2948 36.0005 39.0008 36.0005ZM49.7949 30.5749L47.4204 26.6178L52.0645 25.8438C51.619 27.5808 50.8404 29.1799 49.7949 30.5749ZM45.0639 23.9688L40.4678 22.8213C40.4738 22.7133 40.5008 22.6098 40.5008 22.5003C40.5008 21.2807 40.1303 20.1482 39.5033 19.2002L41.1623 16.7117L46.1364 17.9552L46.8624 15.0466L42.0008 13.8301V9.34805C48.0039 10.7161 52.501 16.0877 52.501 22.5003C52.501 22.5783 52.4905 22.6533 52.489 22.7313L45.0639 23.9688Z" fill="#F6AB2F"/>
</svg>
