<svg width="91" height="91" viewBox="0 0 91 91" fill="none" xmlns="http://www.w3.org/2000/svg">
<rect x="0.423584" y="0.699951" width="90" height="90" rx="45" fill="#37AF47" fill-opacity="0.1"/>
<g clip-path="url(#clip0_3_29)">
<g clip-path="url(#clip1_3_29)">
<g clip-path="url(#clip2_3_29)">
<path d="M71.4236 42.822C71.4236 36.7184 69.0429 30.9803 64.7199 26.6646C60.3974 22.3492 54.6506 19.9727 48.5379 19.9727C42.159 19.9727 36.0501 22.6468 31.7241 27.3207C30.9506 27.0342 30.1245 26.8847 29.2756 26.8847C29.2757 26.8847 29.2755 26.8847 29.2756 26.8847C27.3927 26.8847 25.6216 27.62 24.289 28.9551C24.2611 28.983 24.2349 29.0124 24.2106 29.0434L22.6182 31.0613C21.0961 32.9903 20.0675 35.2844 19.6439 37.6953C19.2166 40.1271 19.4134 42.6341 20.2132 44.9454C20.7928 46.6206 21.522 47.9061 22.3808 48.7665L42.0671 68.4846C42.748 69.1668 43.7032 69.7731 44.9064 70.2864C46.7009 71.0521 48.6065 71.4273 50.5095 71.4271C53.6778 71.427 56.8379 70.3865 59.4578 68.3754L61.7225 66.637C61.7579 66.6098 61.7915 66.5804 61.823 66.5489C63.6095 64.759 64.2346 62.2394 63.6983 59.9388C68.6107 55.5988 71.4236 49.3728 71.4236 42.822ZM60.4301 65.0684L58.2211 66.7641C54.6083 69.5373 49.812 70.1711 45.7036 68.4181C44.7409 68.0074 44.0011 67.5469 43.5047 67.0496L23.8183 47.3314C23.1784 46.6902 22.6112 45.6639 22.1327 44.2812C20.7282 40.2216 21.5058 35.75 24.2128 32.3196L25.7668 30.3501C26.7109 29.4248 27.9546 28.916 29.2755 28.916C30.6151 28.916 31.8755 29.4395 32.8243 30.3901L36.0765 33.6484C37.9463 35.5216 37.9463 38.5696 36.0763 40.4431L32.4339 44.0944C32.0383 44.491 32.0384 45.133 32.4342 45.5293L45.2766 58.3906C45.4672 58.5813 45.7257 58.6886 45.9953 58.6886H45.9956C46.2654 58.6886 46.524 58.5811 46.7144 58.3902L50.3565 54.7391C51.2624 53.8315 52.4657 53.3317 53.7447 53.3317C55.0237 53.3317 56.227 53.8315 57.1329 54.7391L60.3851 57.9974C62.3286 59.9444 62.3435 63.1029 60.4301 65.0684ZM58.8775 53.6116L58.5707 53.3042C57.281 52.0121 55.5671 51.3005 53.7448 51.3005C51.9224 51.3005 50.2086 52.0121 48.9187 53.3044L45.995 56.2353L34.588 44.8114L37.5142 41.8779C40.0898 39.2974 40.1711 35.1499 37.7581 32.4705C40.5726 29.5521 44.4648 27.8905 48.5379 27.8905C56.7859 27.8905 63.496 34.5887 63.496 42.8219C63.496 46.9037 61.8205 50.7995 58.8775 53.6116ZM61.823 56.5625L60.3128 55.0495C63.6361 51.8575 65.5273 47.4448 65.5273 42.8219C65.5273 33.4686 57.9058 25.8592 48.5379 25.8592C43.9284 25.8592 39.5228 27.7329 36.3292 31.0261L34.262 28.9551C34.0395 28.7321 33.8048 28.5259 33.5594 28.3371C37.478 24.3027 42.8919 22.004 48.5379 22.004C60.0371 22.004 69.3923 31.3428 69.3923 42.8219C69.3923 48.5482 67.0325 54.0026 62.8873 57.9283C62.5962 57.4412 62.2414 56.9818 61.823 56.5625Z" fill="#37AF47"/>
<path d="M55.5471 42.8851H55.4333C55.4455 40.7477 55.4519 38.4633 55.4255 38.1457C55.366 37.429 54.9357 36.8449 54.329 36.6577C53.7275 36.4721 53.0888 36.7056 52.6205 37.2826C52.1148 37.9058 49.7807 42.1315 49.0773 43.4117C48.9045 43.7264 48.9106 44.1088 49.0934 44.4179C49.2762 44.7269 49.6085 44.9164 49.9674 44.9164H53.3882C53.3841 45.4861 53.3797 46.0322 53.3756 46.5256C53.3708 47.0865 53.8215 47.5451 54.3825 47.5499C54.3854 47.55 54.3885 47.55 54.3914 47.55C54.9482 47.55 55.4021 47.1009 55.4067 46.5431C55.4094 46.2385 55.4143 45.6486 55.4198 44.9164H55.547C56.108 44.9164 56.5627 44.4617 56.5627 43.9007C56.5628 43.3398 56.108 42.8851 55.5471 42.8851ZM53.4016 42.8851H51.6899C52.3248 41.7448 52.9437 40.6509 53.4129 39.8439C53.4125 40.6774 53.4081 41.7613 53.4016 42.8851Z" fill="#37AF47"/>
<path d="M47.5689 45.8019C46.6757 45.8132 45.7281 45.8206 44.9423 45.8221C45.4356 45.1596 46.1219 44.2181 47.0498 42.8867C47.6178 42.0717 47.9882 41.3014 48.1507 40.5973C48.1888 40.4365 48.2206 40.1301 48.2207 40.0238C48.2225 38.2048 46.7452 36.725 44.9315 36.725C43.363 36.725 42.0055 37.8442 41.7039 39.3864C41.5962 39.9369 41.9552 40.4704 42.5057 40.578C43.0561 40.6856 43.5897 40.3267 43.6974 39.7762C43.813 39.1852 44.332 38.7563 44.9315 38.7563C45.6068 38.7563 46.1594 39.2953 46.1882 39.9688L46.1606 40.1857C46.0498 40.6263 45.7884 41.1441 45.3832 41.7254C43.9758 43.7448 43.136 44.8492 42.6849 45.4425C42.1274 46.1755 41.873 46.51 42.0461 47.0717C42.1477 47.4017 42.3976 47.6551 42.7315 47.7668C42.8673 47.8123 42.9975 47.8559 44.725 47.8559C45.4031 47.8559 46.3274 47.8492 47.5943 47.8331C48.1552 47.8261 48.6042 47.3656 48.5971 46.8048C48.5902 46.2438 48.128 45.7962 47.5689 45.8019Z" fill="#37AF47"/>
</g>
</g>
</g>
<defs>
<clipPath id="clip0_3_29">
<rect width="52" height="52" fill="white" transform="translate(19.4236 19.7)"/>
</clipPath>
<clipPath id="clip1_3_29">
<rect width="52" height="52" fill="white" transform="translate(19.4236 19.7)"/>
</clipPath>
<clipPath id="clip2_3_29">
<rect width="52" height="52" fill="white" transform="translate(19.4236 19.7)"/>
</clipPath>
</defs>
</svg>
