<svg width="259" height="259" viewBox="0 0 259 259" fill="none" xmlns="http://www.w3.org/2000/svg">
<g clip-path="url(#clip0_22_81)">
<path d="M171.076 185.819C172.74 184.185 172.764 181.512 171.13 179.848C169.496 178.184 166.823 178.159 165.159 179.794L136.59 207.853L108.021 179.794C106.357 178.16 103.684 178.184 102.05 179.848C100.416 181.512 100.441 184.185 102.104 185.819L132.368 215.542V250.556H79.4465V201.638C79.4465 192.131 84.3068 183.504 92.4471 178.562C94.4407 177.351 95.075 174.754 93.865 172.761C92.655 170.767 90.0579 170.132 88.0643 171.343C77.3801 177.83 71.0012 189.155 71.0012 201.638V254.778C71.0012 257.11 72.8916 259.001 75.2236 259.001H165.775C168.107 259.001 169.997 257.11 169.997 254.778C169.997 252.446 168.106 250.556 165.774 250.556H140.811V215.542L171.076 185.819Z" fill="#37AF47"/>
<path d="M185.109 171.342C183.116 170.132 180.519 170.767 179.309 172.76C178.099 174.754 178.734 177.351 180.727 178.561C188.871 183.505 193.733 192.132 193.733 201.637V250.555H179.849C177.517 250.555 175.627 252.446 175.627 254.778C175.627 257.11 177.517 259 179.849 259H197.955C200.287 259 202.177 257.11 202.177 254.778V201.637C202.178 189.156 195.797 177.83 185.109 171.342Z" fill="#37AF47"/>
<path d="M111.525 104.578C109.193 104.578 107.303 106.468 107.303 108.8V115.554C107.303 117.886 109.193 119.776 111.525 119.776C113.857 119.776 115.748 117.886 115.748 115.554V108.8C115.748 106.468 113.857 104.578 111.525 104.578Z" fill="#37AF47"/>
<path d="M174.289 92.5842C167.32 85.6145 155.98 85.6145 149.011 92.5842C147.362 94.2333 147.362 96.9068 149.011 98.5554C150.66 100.204 153.333 100.204 154.982 98.5554C158.658 94.8793 164.641 94.8783 168.318 98.5554C169.142 99.3794 170.223 99.7922 171.303 99.7922C172.384 99.7922 173.465 99.3799 174.289 98.5554C175.938 96.9063 175.938 94.2328 174.289 92.5842Z" fill="#37AF47"/>
<path d="M161.651 104.578C159.319 104.578 157.428 106.468 157.428 108.8V115.554C157.428 117.886 159.319 119.776 161.651 119.776C163.983 119.776 165.873 117.886 165.873 115.554V108.8C165.873 106.468 163.983 104.578 161.651 104.578Z" fill="#37AF47"/>
<path d="M228.701 125.227C226.54 124.855 224.45 126.202 223.898 128.326C223.272 130.734 221.098 132.417 218.611 132.417C217.249 132.417 215.943 131.91 214.931 130.986C213.925 130.07 213.303 128.814 213.177 127.455L208.994 81.7972C207.406 64.4448 199.731 48.4146 187.298 36.3337L195.246 16.2582C196.105 14.0901 195.043 11.6367 192.875 10.7783C156.579 -3.59217 116.6 -3.59268 80.3034 10.7783C79.2619 11.1905 78.4272 11.9994 77.9821 13.0273C77.5374 14.0547 77.5192 15.2172 77.9315 16.2587L85.878 36.3307C73.4516 48.4227 65.7701 64.4761 64.1833 81.7977L60.0003 127.457C59.7413 130.285 57.4053 132.418 54.5669 132.418C53.3442 132.418 52.1889 132.023 51.2242 131.276C50.2711 130.537 49.5806 129.492 49.2807 128.332C48.7313 126.206 46.6441 124.859 44.4801 125.227C42.316 125.597 40.7969 127.565 40.9861 129.753C41.0681 130.705 43.1896 153.199 59.37 163.631C64.636 167.026 70.6962 168.725 77.4949 168.725C82.5181 168.725 87.9465 167.791 93.7522 165.936L100.561 170.883C100.652 170.958 100.75 171.025 100.848 171.092L115.106 181.452C121.53 186.12 129.057 188.454 136.586 188.454C144.114 188.454 151.646 186.12 158.072 181.452L172.377 171.057C172.449 171.007 172.521 170.958 172.59 170.903L179.425 165.936C185.232 167.792 190.659 168.725 195.683 168.724C202.48 168.724 208.542 167.025 213.807 163.63C229.988 153.199 232.109 130.705 232.191 129.752C232.381 127.566 230.864 125.599 228.701 125.227ZM185.818 17.1323L172.943 49.6494C149.346 41.3306 123.832 41.3306 100.235 49.6494L87.3602 17.1323C119.268 5.55122 153.911 5.55122 185.818 17.1323ZM96.9993 157.856C96.9948 157.853 96.9902 157.85 96.9856 157.846L96.9588 157.827C86.005 149.871 80.0095 136.556 81.3121 123.078L81.6065 120.033L96.9568 129.288C96.9998 139.046 97.4075 148.9 98.182 158.716L96.9993 157.856ZM153.109 174.621C143.225 181.799 129.948 181.799 120.07 174.621L119.027 173.863C124.873 174.365 130.73 174.62 136.587 174.62C142.445 174.62 148.304 174.365 154.152 173.863L153.109 174.621ZM166.066 163.959C146.487 166.913 126.686 166.913 107.107 163.959C106.108 153.356 105.541 142.669 105.416 132.085C125.913 135.975 147.261 135.975 167.757 132.085C167.632 142.669 167.065 153.356 166.066 163.959ZM170.439 122.911C160.476 125.093 150.269 126.292 140.036 126.513C140.521 125.825 140.809 124.988 140.809 124.082V111.696C140.809 109.364 138.919 107.474 136.587 107.474C134.255 107.474 132.364 109.364 132.364 111.696V124.082C132.364 124.988 132.652 125.826 133.138 126.513C122.904 126.293 112.697 125.094 102.735 122.911L82.507 110.714L82.9835 105.786C83.7994 105.805 84.6043 105.814 85.406 105.814C109.394 105.813 126.906 97.6468 137.668 90.4585C145.323 85.3448 150.637 80.0829 153.723 76.6061C155.792 78.5582 158.707 80.959 162.318 83.0517C170.764 87.9459 179.67 89.2627 188.371 86.959L190.667 110.715L170.439 122.911ZM176.219 157.827L174.991 158.72C175.765 148.903 176.174 139.048 176.217 129.288L191.566 120.033L191.86 123.079C193.163 136.556 187.17 149.87 176.219 157.827ZM209.199 156.555C203.41 160.273 196.066 161.186 187.316 159.314C196.721 149.554 201.593 135.98 200.267 122.267L196.259 80.786C196.128 79.4354 195.356 78.2294 194.184 77.5455C193.012 76.8611 191.583 76.7826 190.342 77.3325C171.466 85.7121 157.384 68.3363 156.801 67.6018C155.973 66.5456 154.683 65.9467 153.351 65.9876C152.009 66.0286 150.767 66.7044 150.005 67.8087C149.782 68.1315 127.16 100.056 79.4187 97.1885C77.1449 97.0478 75.1811 98.7349 74.9621 100.997L72.9073 122.266C71.5814 135.982 76.4549 149.555 85.8623 159.315C77.1125 161.186 69.77 160.273 63.9814 156.556C57.9435 152.678 54.3549 146.305 52.2501 140.667C53.0139 140.797 53.7899 140.863 54.5689 140.863C61.8017 140.863 67.7526 135.43 68.4122 128.226L72.5952 82.5677C73.8892 68.4522 79.7612 55.2892 89.2875 44.9348L93.91 56.61C94.5666 58.2682 96.156 59.2789 97.837 59.2789C98.3545 59.2789 98.8801 59.1833 99.3905 58.981C123.379 49.483 149.802 49.482 173.793 58.981C174.833 59.3933 175.996 59.3751 177.024 58.9304C178.051 58.4858 178.861 57.6506 179.273 56.6095L183.896 44.9333C193.42 55.2685 199.29 68.4213 200.585 82.5677L204.769 128.229C205.089 131.693 206.677 134.889 209.241 137.227C211.812 139.571 215.14 140.862 218.612 140.862C219.398 140.862 220.173 140.797 220.93 140.669C218.824 146.307 215.235 152.678 209.199 156.555Z" fill="#37AF47"/>
<path d="M145.316 21.7903H140.812V17.2861C140.812 14.9541 138.921 13.0637 136.589 13.0637C134.257 13.0637 132.367 14.9541 132.367 17.2861V21.7903H127.863C125.531 21.7903 123.64 23.6807 123.64 26.0127C123.64 28.3447 125.53 30.2351 127.863 30.2351H132.367V34.7392C132.367 37.0713 134.257 38.9616 136.589 38.9616C138.921 38.9616 140.812 37.0713 140.812 34.7392V30.2351H145.316C147.648 30.2351 149.538 28.3447 149.538 26.0127C149.538 23.6807 147.648 21.7903 145.316 21.7903Z" fill="#37AF47"/>
<path d="M179.94 217.43H157.983C155.651 217.43 153.761 219.32 153.761 221.652C153.761 223.984 155.651 225.874 157.983 225.874H179.94C182.272 225.874 184.162 223.984 184.162 221.652C184.162 219.32 182.272 217.43 179.94 217.43Z" fill="#37AF47"/>
<path d="M53.8582 97.3004H15.0639V51.4165C15.0639 49.0845 13.1735 47.1941 10.8415 47.1941C8.50953 47.1941 6.61914 49.0845 6.61914 51.4165V101.523C6.61914 103.855 8.50953 105.745 10.8415 105.745H53.8582C56.1902 105.745 58.0806 103.855 58.0806 101.523C58.0806 99.1913 56.1902 97.3004 53.8582 97.3004Z" fill="#37AF47"/>
<path d="M72.9711 19.8201H10.8411C8.50905 19.8201 6.61865 21.7105 6.61865 24.0425V37.342C6.61865 39.674 8.50905 41.5644 10.8411 41.5644C13.1731 41.5644 15.0635 39.674 15.0635 37.342V28.2649H68.7487V40.3412C68.7487 42.6732 70.6391 44.5636 72.9711 44.5636C75.3031 44.5636 77.1935 42.6732 77.1935 40.3412V24.0425C77.1935 21.7105 75.3031 19.8201 72.9711 19.8201Z" fill="#37AF47"/>
<path d="M50.0804 40.2759C48.5335 40.2759 47.0114 40.5571 45.5555 41.1136C43.1072 42.0489 40.2997 42.0484 37.8508 41.1136C36.3954 40.5581 34.8733 40.2764 33.3259 40.2764C25.4805 40.2764 19.0986 47.5876 19.0986 56.5741C19.0986 59.4939 19.777 62.3571 21.0609 64.855C22.9846 68.5999 24.3368 72.8198 25.0799 77.3998L25.1194 77.6431C25.6895 81.1072 28.416 83.634 31.9039 83.9299C32.1295 83.9492 32.3536 83.9588 32.5762 83.9588C35.7925 83.9588 38.5914 81.9783 39.6658 78.8688C40.4803 76.5115 41.1859 75.0572 41.7024 74.179C42.2194 75.0572 42.9241 76.5115 43.7395 78.8688C44.8883 82.1933 48.0069 84.2264 51.5019 83.9299C54.9898 83.6335 57.7164 81.1067 58.2849 77.6507L58.3264 77.3958C59.0695 72.8187 60.4217 68.5994 62.3455 64.8545C63.6293 62.3566 64.3077 59.4924 64.3077 56.5736C64.3077 47.587 57.9253 40.2759 50.0804 40.2759ZM54.835 60.9953C52.937 64.6891 51.5039 68.7334 50.559 73.0595C48.7839 68.8933 46.0695 64.7316 41.7039 64.7316C37.3374 64.7316 34.6239 68.8933 32.8494 73.0595C31.9055 68.7375 30.4718 64.6906 28.5729 60.9958C27.9001 59.6862 27.5444 58.1575 27.5444 56.5741C27.5444 52.3173 30.1926 48.7212 33.3269 48.7212C33.8404 48.7212 34.3493 48.8158 34.8389 49.0035C39.2657 50.6935 44.1406 50.6935 48.5679 49.0035C49.0576 48.8158 49.5665 48.7212 50.0799 48.7212C53.2147 48.7212 55.8624 52.3173 55.8624 56.5741C55.8629 58.157 55.5078 59.6862 54.835 60.9953Z" fill="#37AF47"/>
<path d="M248.159 181.608H241.403V175.837C241.403 173.505 239.513 171.615 237.181 171.615H217.195C214.863 171.615 212.972 173.505 212.972 175.837V250.555H211.565C209.233 250.555 207.343 252.446 207.343 254.778C207.343 257.11 209.233 259 211.565 259H217.195C219.527 259 221.417 257.11 221.417 254.778V243.678H221.808C228.422 243.678 233.803 238.297 233.803 231.683V200.046H237.181C239.513 200.046 241.403 198.155 241.403 195.823V190.053H248.159C250.491 190.053 252.381 188.162 252.381 185.83C252.381 183.498 250.491 181.608 248.159 181.608ZM225.358 231.683C225.358 233.641 223.766 235.233 221.808 235.233H221.417V200.046H225.358V231.683H225.358ZM232.958 191.601H229.58H221.417V180.06H232.958V191.601H232.958Z" fill="#37AF47"/>
<path d="M62.9354 226.788H26.3102C21.2051 226.788 17.052 222.635 17.052 217.53C17.052 215.495 18.7071 213.84 20.7422 213.84H62.9354C65.2674 213.84 67.1578 211.949 67.1578 209.617C67.1578 207.285 65.2674 205.395 62.9354 205.395H20.7422C14.0512 205.395 8.60718 210.838 8.60718 217.53C8.60718 227.291 16.5486 235.233 26.3102 235.233H62.9354C65.2674 235.233 67.1578 233.342 67.1578 231.01C67.1578 228.678 65.2674 226.788 62.9354 226.788Z" fill="#37AF47"/>
</g>
<defs>
<clipPath id="clip0_22_81">
<rect width="259" height="259" fill="white"/>
</clipPath>
</defs>
</svg>
