<svg width="107" height="132" viewBox="0 0 107 132" fill="none" xmlns="http://www.w3.org/2000/svg">
<path d="M87.1019 40.3671C82.1158 36.4761 77.074 35.1335 72.6141 35.1618C69.2028 35.1662 66.1523 35.8595 63.4525 36.4718C60.7506 37.0998 58.3911 37.627 56.4346 37.6185C54.4817 37.6273 52.1232 37.0998 49.4203 36.4718C46.7205 35.8592 43.67 35.1662 40.2597 35.1618C35.7988 35.1335 30.7567 36.4741 25.7709 40.3691C22.0687 43.2223 19.381 46.9629 17.6885 51.2354C15.9892 55.512 15.2436 60.3073 15.2416 65.4648C15.2457 73.3642 16.9854 82.151 20.0075 91.4804C23.1281 101.106 25.8023 108.184 27.7805 113.33C28.7669 115.9 29.5788 117.988 30.1741 119.638C30.7701 121.278 31.1409 122.503 31.2641 123.185C31.7503 125.822 32.9688 128.065 34.7069 129.621C36.4389 131.178 38.6589 132.004 40.879 132C43.1722 132.002 45.4544 131.132 47.2766 129.53C49.1065 127.928 50.4637 125.615 51.1175 122.816C51.3083 121.995 51.4294 121.131 51.5503 120.159C51.7571 118.468 51.9404 116.467 52.2021 114.409C52.5847 111.333 53.1972 108.116 54.1094 106.043C54.5508 105.003 55.0553 104.295 55.4325 103.968C55.8305 103.641 55.9687 103.589 56.4351 103.562C56.8015 103.573 56.9474 103.628 57.1939 103.776C57.6071 104.016 58.3153 104.873 58.8928 106.346C59.7823 108.528 60.3577 111.784 60.7261 114.849C60.9159 116.384 61.0641 117.879 61.2124 119.222C61.3681 120.575 61.5089 121.744 61.7561 122.816C62.4112 125.615 63.764 127.928 65.5949 129.53C67.4172 131.136 69.7027 132.002 71.9949 132C74.2149 132.004 76.4349 131.178 78.1669 129.619C79.9064 128.065 81.1214 125.822 81.61 123.185C81.734 122.502 82.1045 121.277 82.6998 119.638C84.4926 114.664 88.1907 105.904 92.8661 91.4802C95.8894 82.1528 97.6279 73.364 97.6299 65.4646C97.6299 60.3094 96.8843 55.5117 95.1854 51.2351C93.4897 46.9629 90.802 43.2205 87.1019 40.3671ZM86.6105 89.4533C83.5361 98.933 80.918 105.863 78.954 110.974C77.971 113.533 77.1534 115.634 76.5138 117.404C75.876 119.183 75.4073 120.611 75.1479 121.973C74.8733 123.403 74.3252 124.227 73.7769 124.722C73.221 125.216 72.6281 125.417 71.9938 125.426C71.3387 125.421 70.6269 125.193 69.9306 124.589C69.2417 123.981 68.551 122.967 68.1573 121.311C68.0692 120.94 67.9547 120.229 67.8487 119.36C67.6613 117.825 67.4728 115.774 67.1939 113.577C66.759 110.264 66.1637 106.623 64.8037 103.437C64.1094 101.846 63.2102 100.32 61.8316 99.0728C60.4758 97.8239 58.5095 96.9628 56.4343 96.9889C54.8637 96.9801 53.3272 97.4555 52.1054 98.2555C49.9509 99.6812 48.7508 101.763 47.8788 103.895C46.5949 107.121 46.0316 110.772 45.6219 114.046C45.4193 115.678 45.2687 117.209 45.1251 118.49C44.9844 119.764 44.8364 120.818 44.7152 121.311C44.3228 122.968 43.6306 123.979 42.9417 124.585C42.2423 125.193 41.5338 125.422 40.8787 125.422C40.2424 125.418 39.6515 125.213 39.0957 124.722C38.5476 124.228 37.9992 123.404 37.7246 121.976C37.4653 120.611 36.9966 119.184 36.359 117.405C34.4494 112.121 30.8779 103.688 26.2623 89.454C23.3815 80.5801 21.8135 72.3884 21.8186 65.4656C21.8155 60.9426 22.4802 56.9733 23.7991 53.6663C25.1233 50.3555 27.0623 47.6871 29.7912 45.5731C33.7824 42.5213 36.9966 41.7672 40.2597 41.7389C42.7512 41.7366 45.2907 42.2684 47.9531 42.8833C50.6158 43.4848 53.395 44.1824 56.4346 44.1932C59.4758 44.1824 62.2547 43.4848 64.9171 42.8833C67.5819 42.2687 70.1214 41.7366 72.6139 41.7389C75.8737 41.7672 79.0868 42.5237 83.0811 45.5731C85.8103 47.6871 87.749 50.3532 89.0734 53.6663C90.3921 56.973 91.0547 60.9423 91.0547 65.4656C91.0596 72.3899 89.4911 80.5837 86.6105 89.4533Z" fill="white"/>
<path d="M106.351 15.3739L95.1117 12.3961C94.8175 12.3307 94.5775 12.0953 94.5143 11.7988L91.55 0.560227C91.4714 0.23332 91.1816 0 90.8439 0C90.5059 0 90.2158 0.23332 90.1375 0.560227L87.1752 11.7988C87.1076 12.0953 86.8699 12.3307 86.5758 12.3961L75.3369 15.3739C75.008 15.4394 74.7747 15.7312 74.7747 16.0692C74.7747 16.4072 75.008 16.699 75.3369 16.7622L86.5758 19.742C86.8699 19.8031 87.1074 20.0429 87.1752 20.3393L90.1375 31.5761C90.2158 31.9051 90.5059 32.1384 90.8439 32.1384C91.1816 32.1384 91.4714 31.9051 91.55 31.5761L94.5143 20.3393C94.5775 20.0429 94.8175 19.8031 95.1117 19.742L106.351 16.7622C106.68 16.699 106.913 16.4069 106.913 16.0692C106.913 15.7312 106.68 15.4394 106.351 15.3739Z" fill="white"/>
<path d="M56.7358 65.9354L46.4725 63.2153C46.2034 63.1565 45.9852 62.9404 45.9275 62.6703L43.2202 52.408C43.1483 52.1095 42.8835 51.8958 42.5752 51.8958C42.2666 51.8958 42.0018 52.1095 41.9299 52.408L39.2249 62.6703C39.164 62.9404 38.947 63.1565 38.6778 63.2153L28.4143 65.9354C28.1137 65.9945 27.9012 66.2624 27.9012 66.5699C27.9012 66.8796 28.1137 67.1454 28.4143 67.2041L38.6778 69.9243C38.947 69.981 39.164 70.1992 39.2249 70.4693L41.9299 80.7316C42.0018 81.0324 42.2666 81.2438 42.5752 81.2438C42.8835 81.2438 43.1483 81.0324 43.2202 80.7316L45.9275 70.4693C45.9852 70.1992 46.2034 69.981 46.4725 69.9243L56.7358 67.2041C57.0366 67.1454 57.2491 66.8793 57.2491 66.5699C57.2491 66.2624 57.0366 65.9945 56.7358 65.9354Z" fill="white"/>
<path d="M15.7464 33.7013L24.4491 31.3951C24.7041 31.3449 24.8838 31.1206 24.8838 30.8568C24.8838 30.5975 24.7039 30.3685 24.4491 30.3185L15.7464 28.0124C15.5188 27.9621 15.3334 27.779 15.2844 27.5504L12.9891 18.8487C12.9283 18.5958 12.7037 18.415 12.442 18.415C12.1806 18.415 11.9558 18.5958 11.895 18.8487L9.60171 27.5504C9.54938 27.7793 9.3653 27.9624 9.13739 28.0124L0.434672 30.3185C0.179438 30.3685 0 30.5975 0 30.8568C0 31.1208 0.179696 31.3451 0.434672 31.3951L9.13739 33.7013C9.3653 33.7492 9.54938 33.9346 9.60171 34.1633L11.895 42.8649C11.9558 43.1199 12.1806 43.2986 12.442 43.2986C12.7037 43.2986 12.9283 43.1197 12.9891 42.8649L15.2844 34.1633C15.3334 33.9346 15.5188 33.7492 15.7464 33.7013Z" fill="white"/>
</svg>
