<svg width="49" height="49" viewBox="0 0 49 49" fill="none" xmlns="http://www.w3.org/2000/svg">
<g id="SVG" clip-path="url(#clip0_3_161)">
<g id="Group">
<path id="Vector" d="M44.0636 13.7H4.06361C3.62181 13.7 3.26361 14.0582 3.26361 14.5V35.3C3.26361 35.7418 3.62181 36.1 4.06361 36.1H9.31561C10.0097 40.0326 9.63731 44.0793 8.23721 47.8191C8.08211 48.2328 8.29181 48.694 8.70551 48.8491C8.79521 48.8827 8.89021 48.9 8.98601 48.9H39.1412C39.583 48.8998 39.9411 48.5415 39.9409 48.0997C39.9409 48.0039 39.9236 47.9089 39.89 47.8191C38.4899 44.0793 38.1175 40.0326 38.8116 36.1H44.0636C44.5054 36.1 44.8636 35.7418 44.8636 35.3V14.5C44.8636 14.0582 44.5054 13.7 44.0636 13.7ZM10.1116 47.3C11.273 43.6854 11.5582 39.8465 10.9436 36.1H37.1836C36.569 39.8465 36.8542 43.6854 38.0156 47.3H10.1116ZM43.2636 34.5H39.1252L41.5252 23.4696L39.9612 23.1304L37.4876 34.5H10.6396L8.16841 23.1304L6.60441 23.4696L9.00441 34.5H4.86361V15.3H23.2636V20.472L22.4636 21.0056V17.7144C22.4636 17.2726 22.1054 16.9144 21.6636 16.9144C19.4012 16.9078 17.2303 17.8072 15.6356 19.412C12.8265 22.2043 11.2521 26.0048 11.2636 29.9656C11.257 31.1044 11.9167 32.142 12.9508 32.6192C13.3422 32.8034 13.7694 32.8994 14.202 32.9C14.8859 32.8985 15.5475 32.6563 16.0708 32.216L16.6804 31.7088C16.9861 31.4535 17.3717 31.3136 17.77 31.3136H19.1612C20.9835 31.3113 22.4605 29.8351 22.4636 28.0128V22.928L24.0636 21.86L25.6636 22.9264V27.996C25.6649 29.8196 27.1424 31.2978 28.966 31.3H30.3572C30.7553 31.3001 31.1408 31.4397 31.4468 31.6944L32.0564 32.2016C32.58 32.642 33.2418 32.8841 33.926 32.8855C34.358 32.8848 34.7846 32.7893 35.1756 32.6056C36.2101 32.1279 36.8701 31.0898 36.8636 29.9504C36.8745 25.9898 35.3001 22.1895 32.4916 19.3968C30.8965 17.7927 28.7258 16.8936 26.4636 16.9C26.0218 16.9 25.6636 17.2582 25.6636 17.7V21.0056L24.8636 20.472V15.3H43.2636V34.5ZM20.8636 18.5592V28.0128C20.8618 28.9521 20.1006 29.7131 19.1612 29.7144H17.77C16.9971 29.7147 16.2488 29.9855 15.6548 30.4799L15.046 30.9872C14.4817 31.4578 13.6428 31.3817 13.1722 30.8174C12.9728 30.5783 12.8636 30.2769 12.8636 29.9656C12.8534 26.4294 14.259 23.0363 16.7668 20.5432C17.867 19.4352 19.3121 18.7354 20.8636 18.5592ZM27.2636 27.9976V18.5456C28.8148 18.7217 30.2597 19.4209 31.3604 20.528C33.8678 23.0214 35.2733 26.4143 35.2636 29.9504C35.2639 30.6852 34.6686 31.2811 33.9338 31.2814C33.6222 31.2815 33.3205 31.1723 33.0812 30.9728L32.4716 30.4648C31.8774 29.9713 31.1296 29.7008 30.3572 29.7H28.966C28.0262 29.6991 27.2645 28.9374 27.2636 27.9976Z" fill="#E6492D"/>
</g>
<g id="Group_2">
<path id="Vector_2" d="M40.6348 6.4999H30.4636V1.6999C30.4636 1.2581 30.1054 0.899902 29.6636 0.899902H18.4636C18.0218 0.899902 17.6636 1.2581 17.6636 1.6999V6.4999H7.4924C3.3921 6.5061 0.0697986 9.8284 0.0635986 13.9287V17.6999H1.6636V13.9287C1.6698 10.7121 4.2758 8.1061 7.4924 8.0999H18.4636C18.9054 8.0999 19.2636 7.7417 19.2636 7.2999V2.4999H28.8636V7.2999C28.8636 7.7417 29.2218 8.0999 29.6636 8.0999H40.6348C43.8514 8.1061 46.4574 10.7121 46.4636 13.9287V17.6999H48.0636V13.9287C48.0574 9.8284 44.7351 6.5061 40.6348 6.4999Z" fill="#E6492D"/>
</g>
<g id="Group_3">
<path id="Vector_3" d="M18.698 22.7344L17.3324 24.1H15.2636V25.7H16.8636V27.3H18.4636V25.2312L19.8292 23.8656L18.698 22.7344Z" fill="#E6492D"/>
</g>
<g id="Group_4">
<path id="Vector_4" d="M30.7948 24.1L29.4292 22.7344L28.298 23.8656L29.6636 25.2312V27.3H31.2636V25.7H32.8636V24.1H30.7948Z" fill="#E6492D"/>
</g>
</g>
<defs>
<clipPath id="clip0_3_161">
<rect width="48" height="48" fill="white" transform="translate(0.0635986 0.899902)"/>
</clipPath>
</defs>
</svg>
